<?xml version="1.0" standalone="no"?>
<!DOCTYPE svg PUBLIC "-//W3C//DTD SVG 20010904//EN"
 "http://www.w3.org/TR/2001/REC-SVG-20010904/DTD/svg10.dtd">
<svg version="1.0" xmlns="http://www.w3.org/2000/svg"
 width="920.000000pt" height="300.000000pt" viewBox="0 0 920.000000 300.000000"
 preserveAspectRatio="xMidYMid meet">

<g transform="translate(0.000000,300.000000) scale(0.100000,-0.100000)"
fill="#000000" stroke="none">
<path d="M4415 2990 c-469 -54 -913 -360 -1136 -784 -66 -125 -94 -197 -129
-331 -88 -341 -48 -731 108 -1042 106 -210 318 -453 502 -574 295 -195 619
-279 964 -249 863 75 1477 849 1355 1710 -87 616 -565 1121 -1179 1250 -120
25 -355 34 -485 20z m417 -116 c162 -26 351 -97 493 -184 352 -216 573 -550
645 -975 19 -113 21 -155 17 -320 -5 -203 -17 -275 -68 -428 -71 -216 -177
-387 -338 -547 -94 -94 -285 -239 -298 -226 -2 2 0 21 6 43 6 21 11 43 11 50
0 7 -39 -7 -92 -32 -206 -97 -383 -137 -608 -137 -168 0 -294 20 -440 68 -474
159 -822 557 -925 1059 -35 169 -29 496 11 673 53 238 166 448 337 628 100
106 317 277 332 262 2 -2 -1 -23 -7 -46 -6 -24 -8 -45 -6 -48 3 -2 25 7 49 20
132 73 350 139 514 155 107 11 247 5 367 -15z"/>
<path d="M4465 2479 c-16 -50 -32 -92 -36 -94 -3 -3 -48 25 -99 60 -52 36 -95
63 -97 62 -2 -2 2 -30 7 -63 6 -32 12 -71 15 -87 l5 -27 -63 39 c-34 22 -63
38 -64 37 -2 -2 16 -44 39 -95 31 -65 47 -90 58 -87 8 2 42 16 76 30 33 14 87
33 120 41 85 24 263 30 351 12 83 -16 72 -25 98 86 25 111 22 116 -34 55 -27
-29 -51 -51 -54 -48 -3 3 -7 42 -8 88 -2 45 -6 82 -9 82 -3 0 -39 -38 -80 -85
-41 -47 -77 -85 -80 -85 -3 0 -27 38 -55 85 -27 46 -53 85 -56 85 -3 0 -18
-41 -34 -91z"/>
<path d="M4503 2260 c-68 -10 -233 -61 -233 -72 0 -4 4 -8 10 -8 12 0 80 -60
80 -71 0 -5 -12 -4 -26 1 -114 44 -178 -42 -137 -185 5 -18 4 -18 -11 -6 -31
26 -46 69 -46 133 l0 62 -71 -69 c-62 -62 -148 -175 -164 -217 -5 -12 4 -17
35 -22 l41 -6 -29 -43 c-61 -89 -116 -224 -128 -318 l-7 -49 39 13 c22 8 51
17 67 21 l27 6 -6 -107 c-4 -62 -2 -141 5 -185 11 -79 49 -208 61 -208 12 0
135 133 183 199 29 38 49 58 52 50 27 -77 32 -214 13 -345 -9 -64 -9 -86 0
-97 24 -28 151 -61 237 -61 98 0 162 15 282 65 51 22 94 39 97 39 3 0 11 -20
17 -45 10 -41 13 -44 33 -33 11 6 53 43 92 83 81 81 145 196 164 292 18 91 17
90 50 58 16 -16 32 -26 35 -24 2 3 12 34 22 70 24 88 23 280 -1 368 -21 78
-65 178 -108 243 -27 43 -32 47 -43 32 -11 -16 -14 -15 -31 11 -11 16 -19 45
-19 63 0 45 -26 64 -54 38 -18 -17 -21 -17 -45 0 -15 9 -30 14 -33 10 -7 -6 9
-26 87 -110 l45 -48 -45 6 c-25 4 -68 2 -97 -3 l-52 -10 -55 57 c-56 58 -64
78 -46 113 13 23 8 24 -30 4 -26 -13 -32 -13 -77 7 -63 28 -123 29 -159 2 -15
-11 -29 -25 -31 -31 -6 -17 66 -45 126 -48 31 -2 62 -3 69 -4 15 -1 112 -90
112 -102 0 -5 -60 -7 -134 -5 -159 3 -191 17 -231 97 -17 33 -33 51 -50 55
-21 5 -23 9 -13 21 6 8 34 27 60 42 42 24 46 30 33 41 -8 7 -15 16 -15 21 0
17 147 80 200 85 52 5 59 3 128 -40 41 -25 76 -46 78 -46 2 0 8 18 14 40 7 27
15 38 23 34 7 -4 50 -34 96 -66 45 -33 85 -58 87 -56 7 8 -29 124 -44 142 -34
37 -194 112 -214 100 -3 -2 -3 -18 2 -34 11 -38 1 -38 -35 0 -43 45 -84 60
-162 59 -37 -1 -91 -5 -120 -9z m450 -587 c35 -22 37 -26 37 -76 -1 -50 -2
-53 -50 -90 -61 -47 -154 -90 -177 -83 -10 4 -37 43 -60 87 l-43 81 23 19 c12
10 57 37 101 59 86 44 103 44 169 3z m186 -5 c19 -53 24 -131 12 -175 -7 -24
-16 -43 -20 -43 -5 0 -25 24 -45 53 -51 74 -53 129 -5 169 18 15 36 28 40 28
4 0 12 -14 18 -32z m-64 -270 c17 -33 18 -42 7 -83 -13 -49 -52 -109 -77 -119
-11 -4 -16 7 -21 44 -4 28 -8 50 -11 50 -2 0 -26 -12 -54 -26 -28 -14 -57 -23
-65 -20 -7 3 -22 23 -34 45 l-20 40 44 30 c134 92 197 103 231 39z"/>
<path d="M3350 1560 c0 -16 7 -20 35 -20 32 0 35 -3 35 -28 0 -46 25 -72 70
-72 50 0 70 27 70 92 l0 48 -105 0 c-98 0 -105 -1 -105 -20z m170 -33 c0 -7
-7 -22 -15 -33 -15 -19 -15 -19 -35 5 -28 33 -25 41 15 41 22 0 35 -5 35 -13z"/>
<path d="M3425 1413 c-61 -7 -74 -13 -69 -28 4 -10 20 -15 49 -15 31 0 46 -5
56 -20 20 -29 37 -11 31 33 -4 39 -3 38 -67 30z"/>
<path d="M3430 1313 c-50 -18 -68 -84 -31 -117 23 -21 37 -6 21 24 -7 13 -8
26 -1 38 8 14 12 8 21 -31 13 -50 23 -56 58 -31 56 39 -2 141 -68 117z m55
-73 c-9 -14 -25 5 -25 30 0 12 3 12 16 -2 9 -9 13 -21 9 -28z"/>
<path d="M3463 1154 c-75 -34 -72 -62 4 -41 24 6 45 8 48 5 12 -12 -9 -38 -41
-48 -36 -12 -39 -17 -25 -38 6 -11 15 -10 45 4 26 13 39 15 47 7 16 -16 3 -33
-37 -49 -34 -14 -42 -28 -24 -39 16 -10 100 26 111 46 7 14 4 29 -10 56 -10
21 -24 57 -31 81 -7 23 -18 42 -24 41 -6 0 -35 -11 -63 -25z"/>
<path d="M3651 1002 c-15 -27 10 -50 29 -27 11 13 11 19 -2 32 -15 14 -17 13
-27 -5z"/>
<path d="M3553 948 c-32 -20 -49 -36 -46 -45 7 -19 19 -17 79 17 36 21 51 36
47 45 -7 21 -20 18 -80 -17z"/>
<path d="M3579 889 c-30 -30 -23 -88 13 -108 35 -20 47 -7 20 22 -12 13 -22
29 -22 35 0 23 18 12 40 -23 25 -41 33 -43 54 -13 22 30 20 60 -4 86 -26 28
-73 29 -101 1z m85 -58 c-7 -7 -34 28 -34 43 1 6 10 0 21 -13 11 -13 17 -27
13 -30z"/>
<path d="M3678 767 c-35 -32 -45 -46 -38 -57 7 -11 13 -12 23 -5 63 46 66 46
86 36 31 -17 36 5 9 39 -13 16 -25 29 -28 29 -3 0 -26 -19 -52 -42z"/>
<path d="M3822 663 l-62 -78 27 -23 c57 -48 73 -56 86 -43 9 10 5 19 -22 41
l-34 29 52 65 c49 62 57 86 27 86 -7 0 -41 -35 -74 -77z"/>
<path d="M3949 578 c-26 -9 -49 -44 -49 -74 0 -24 47 -64 75 -64 32 0 33 18 1
30 -13 5 -27 14 -31 20 -14 22 4 22 40 0 31 -19 39 -20 46 -9 34 54 -21 118
-82 97z m49 -40 c20 -20 13 -28 -13 -16 -14 6 -25 15 -25 20 0 12 24 10 38 -4z"/>
<path d="M4066 489 c-32 -25 -35 -70 -7 -98 17 -17 90 -45 98 -38 1 2 13 28
27 58 l24 55 -41 22 c-52 27 -67 27 -101 1z m79 -35 c20 -15 20 -15 -4 -35
-24 -20 -25 -20 -44 0 -38 38 4 69 48 35z"/>
<path d="M4220 430 c-39 -39 -12 -120 40 -120 24 0 26 -15 4 -24 -9 -4 -28 1
-41 10 -19 12 -28 13 -37 4 -17 -17 29 -50 69 -50 44 0 61 19 81 88 8 31 18
65 20 75 4 13 -1 17 -20 17 -14 0 -28 5 -31 10 -11 17 -64 11 -85 -10z m88
-53 c4 -18 -39 -34 -57 -22 -15 8 -14 38 1 53 14 14 51 -6 56 -31z"/>
<path d="M4376 404 c-10 -27 -7 -89 7 -107 20 -27 71 -33 94 -10 20 20 38 96
28 114 -14 22 -33 7 -38 -32 -7 -51 -20 -67 -42 -49 -9 8 -15 29 -15 56 0 31
-4 44 -14 44 -8 0 -17 -7 -20 -16z"/>
<path d="M4545 385 c-14 -13 -25 -36 -25 -50 0 -28 40 -75 64 -75 25 0 67 23
63 34 -2 6 -18 10 -35 8 -16 -2 -33 2 -37 7 -4 7 10 11 39 11 42 0 46 2 46 24
0 28 -42 66 -72 66 -10 0 -30 -11 -43 -25z m70 -25 c4 -6 -5 -10 -19 -10 -14
0 -26 5 -26 10 0 6 9 10 19 10 11 0 23 -4 26 -10z"/>
</g>
</svg>
